<svg version="1.1" id="Layer_1" xmlns="http://www.w3.org/2000/svg" xmlns:xlink="http://www.w3.org/1999/xlink" x="0px" y="0px" enable-background="new 0 0 496 496" xml:space="preserve" viewBox="121.27 101.83 259.67 254.13">
<path fill="#000000" opacity="1.000000" stroke="none" d=" M268.812805,355.036133   C254.035446,356.747772 239.841568,355.972382 225.689438,353.173920   C209.348724,349.942688 194.199493,343.868164 180.381302,334.615784   C155.493576,317.951416 137.677750,295.519470 128.167908,267.157745   C122.293083,249.636978 119.617706,231.693115 122.348877,212.734161   C125.427574,191.362762 132.862411,172.200394 145.547318,155.140945   C160.882187,134.517685 180.630859,119.591034 204.982468,110.542183   C223.917084,103.506248 243.282730,100.560326 263.202484,102.361725   C281.051544,103.975861 297.950348,109.518639 313.834625,117.930313   C316.506622,119.345284 318.135498,121.336166 316.083862,124.365868   C314.054352,127.362831 312.332031,130.966446 307.462891,128.478760   C297.488861,123.382904 286.901398,120.035423 276.112457,117.006119   C256.988495,111.636513 238.338699,113.532181 219.603134,118.696220   C195.026749,125.470161 174.758896,138.879654 158.632050,158.397598   C145.080750,174.798401 137.206482,193.603897 134.795929,215.006195   C132.866562,232.136200 134.641891,248.820618 140.171234,264.667877   C146.755142,283.537598 157.827148,299.941589 173.235199,313.269409   C184.206863,322.759796 196.153137,330.284912 209.718323,335.373169   C215.602188,337.580170 216.929413,337.461121 219.714752,332.043854   C226.336777,319.164551 237.598907,311.318634 249.353867,303.821838   C258.897217,297.735565 268.245728,291.427826 274.142181,281.128113   C277.137909,275.895294 278.952423,280.551666 280.961517,283.297058   C287.677429,279.265350 290.387512,272.612427 292.742737,265.994324   C295.701416,257.680481 296.012024,249.063629 293.649109,240.466705   C293.268829,239.083115 293.057922,237.735062 294.386047,236.872726   C296.153931,235.724869 297.171967,237.270126 298.120636,238.326874   C301.612640,242.216736 303.045532,247.258667 305.233765,251.967056   C313.360046,244.453918 303.324829,215.942444 290.565735,210.582367   C294.110687,213.689911 295.942383,217.898804 298.208710,221.820801   C299.114990,223.389114 299.806244,225.096878 300.454559,226.794937   C301.138550,228.586487 301.398132,230.598541 299.641815,231.810974   C297.721710,233.136505 296.761353,231.054291 295.520905,230.088669   C291.821472,227.208786 288.503906,223.539291 282.628784,223.678207   C289.588165,235.584946 293.194733,247.830856 289.987854,261.077271   C289.122406,264.652100 287.700806,268.697937 283.346954,271.287476   C280.148621,265.226990 279.870026,257.710419 273.280701,253.542892   C271.903534,257.094910 273.606750,260.268738 273.787842,263.355774   C274.459137,274.798553 268.532867,282.544403 260.577209,289.405273   C253.847137,295.209198 245.865326,299.141174 238.368942,303.742310   C227.903778,310.165588 219.094925,317.881592 213.610168,329.037018   C212.906281,330.468658 212.424698,332.500641 210.248291,332.104279   C208.237518,331.738098 208.181015,329.714264 207.741791,328.153534   C205.338486,319.613617 208.062622,312.067993 212.358521,304.857117   C213.617416,302.744019 215.011002,300.711151 216.314529,298.685516   C213.818359,295.587830 209.041046,296.671387 207.568130,292.568420   C209.347977,290.478027 211.970612,289.756683 214.272324,288.564423   C224.227066,283.408051 231.716293,273.835449 229.360291,261.964630   C228.814377,259.214020 227.783173,256.949768 226.234161,254.771896   C225.475754,253.705597 224.327652,252.666168 225.416092,251.243973   C226.437225,249.909729 227.815842,250.488770 229.097198,250.816177   C237.680710,253.009460 243.965179,257.984772 247.687759,266.106140   C248.269363,267.375031 248.293213,269.127441 250.722229,269.612000   C250.789124,264.731781 249.931580,260.393768 246.804260,256.660858   C240.039017,248.585556 230.683655,245.874817 220.857712,244.120468   C219.319138,243.845764 217.061188,244.449081 216.706314,242.274796   C216.326401,239.947021 218.608078,239.559189 220.203278,238.710800   C224.660690,236.340118 229.164612,234.732483 234.417618,235.572464   C236.560043,235.915024 239.051147,235.690567 241.300339,233.999969   C239.969345,230.567917 236.728149,229.674591 233.925308,228.775208   C228.491791,227.031754 223.646805,224.181671 218.572906,221.726868   C210.964355,218.045746 208.975159,211.561569 209.163300,204.017227   C209.218033,201.821976 209.051056,200.622681 206.862427,199.879440   C204.447784,199.059418 202.401367,197.541611 201.178802,195.237183   C200.326187,193.630096 199.324768,193.447449 197.544846,193.667801   C192.933395,194.238724 190.453079,191.349640 191.567902,186.625916   C193.373688,178.974472 198.768982,173.930573 205.103485,170.048264   C217.137405,162.672867 230.158325,157.361649 244.159775,155.581329   C251.983719,154.586502 259.879517,152.861191 267.899323,153.774734   C269.507324,153.957916 271.306030,153.581848 272.516235,155.510620   C272.139221,159.034454 267.707123,160.794586 267.840424,165.763901   C275.312592,155.337051 286.061920,150.978271 296.164154,145.677551   C305.818970,140.611588 313.501251,133.417557 319.624542,124.439262   C320.885132,122.590958 321.575378,120.128548 324.048126,119.307732   C328.892609,123.837143 328.381989,131.652985 322.128296,149.674072   C327.132812,149.425583 327.485992,150.006851 325.849762,154.754349   C324.747131,157.953613 323.197357,160.874924 321.110260,163.489899   C318.983215,166.154968 317.046082,168.322586 317.146942,172.507889   C317.239197,176.336182 312.869934,178.949066 309.772980,181.468781   C307.911804,182.983047 305.874329,184.280624 303.789154,185.765976   C305.152679,186.916687 305.919769,186.340378 306.693604,186.161774   C309.834717,185.436737 312.423950,182.178909 316.059204,183.839798   C320.641510,185.933411 324.823883,188.767105 328.044800,192.633514   C334.679932,200.598419 341.392029,208.393051 351.128662,212.786774   C351.646118,213.020294 351.953522,213.719421 352.664459,214.565750   C346.084167,219.159790 340.223877,216.299362 333.976349,213.867996   C340.066315,223.324997 346.658264,232.323914 349.333313,243.451233   C351.972961,254.431519 353.397888,265.268341 349.125458,276.431091   C343.560425,261.431824 340.182556,245.552750 328.556732,233.468964   C329.983856,237.186279 331.062286,241.087204 332.904633,244.585846   C338.050110,254.357132 339.223145,265.036346 341.172363,275.663147   C343.613495,288.971893 337.673920,298.043762 328.367950,306.053864   C327.170685,307.084412 325.992889,308.074280 324.388977,307.178192   C322.599274,306.178345 323.457855,304.577362 323.728851,303.157623   C325.806732,292.271149 325.209015,281.428314 323.297546,269.708496   C321.343506,272.049652 321.461517,274.027161 321.562073,276.113495   C322.391083,293.316925 316.515076,308.541626 306.644196,322.119751   C302.583954,327.704956 295.045563,329.043121 288.850250,331.747925   C284.485535,333.653503 279.656555,334.507477 275.017029,335.765045   C273.555267,336.161316 271.948792,336.408478 270.901154,334.935913   C269.817871,333.413300 270.846344,332.050446 271.610931,330.795105   C276.830353,322.225098 283.961700,315.104095 289.731049,306.949738   C291.152344,304.940887 292.484070,302.868713 294.651703,299.643066   C289.858673,301.322662 288.599182,304.878998 286.091644,306.953705   C277.137482,314.362305 267.688385,321.308990 260.761230,330.882782   C260.468384,331.287537 260.058472,331.630463 259.853302,332.072021   C258.329956,335.350555 254.615662,338.422119 257.458679,342.324432   C259.028931,344.479706 267.679626,342.493439 270.396576,339.875305   C270.868652,339.420380 271.268646,338.890656 271.955963,338.105133   C274.445709,340.416138 277.316681,340.310577 280.286346,339.395813   C327.041504,324.993774 357.598938,294.767548 366.307739,246.166428   C373.221130,207.584900 361.224030,173.852707 332.641174,146.482880   C329.226898,143.213486 328.505341,137.723099 330.765991,133.532288   C332.112457,131.036179 333.815643,131.180893 335.609161,132.776215   C338.842529,135.652252 342.146027,138.483643 345.099274,141.634506   C359.551544,157.053802 370.653625,174.457932 376.059052,195.119278   C378.759308,205.440567 381.290527,216.050476 380.875305,226.585815   C378.825134,278.608032 354.759888,317.281067 308.786865,342.056061   C296.399902,348.731384 283.021912,352.489563 268.812805,355.036133  M245.801331,192.161545   C242.608353,197.306198 241.524292,202.436172 244.786392,208.148575   C246.669373,211.445923 244.827103,212.916046 241.269699,213.026474   C238.627243,213.108505 235.752884,212.207489 233.027283,214.004059   C233.654297,214.666473 233.931656,215.237289 234.323639,215.331573   C239.527390,216.583176 244.273483,215.532425 248.254013,211.966064   C252.337250,208.307693 254.329590,203.665451 253.410690,198.134369   C253.036270,195.880569 251.996155,193.722122 253.079742,191.282547   C254.518631,190.898773 256.598206,191.997543 257.458862,189.130936   C250.288025,187.280777 243.004974,185.896255 236.377625,182.540344   C235.726593,182.210693 234.456726,182.874374 233.567062,183.280609   C225.773941,186.839111 221.943146,194.482315 215.757736,200.177505   C220.027496,199.093643 221.815613,200.308533 222.607956,204.434845   C223.339203,208.242950 225.549194,211.604355 230.255325,213.347122   C228.574203,209.913712 229.487991,207.115707 231.047287,204.805588   C233.207962,201.604523 233.252151,198.980545 230.954712,195.818146   C229.677536,194.060135 228.409943,191.548981 230.405472,189.386749   C233.143280,186.420242 243.707031,187.891724 245.801331,192.161545  M297.703857,169.270782   C298.227814,166.929520 295.036163,166.347000 295.257812,163.878784   C296.409943,162.408707 297.682922,160.784439 298.955933,159.160172   C292.096405,162.924057 284.376709,165.583038 280.930481,174.548935   C286.821960,173.162994 288.429565,175.250687 286.370117,180.047577   C289.463562,181.566360 291.739197,180.750015 294.083160,178.767670   C290.265045,173.812012 296.345276,172.911240 297.703857,169.270782  z"/>
<path fill="#000000" opacity="1.000000" stroke="none" d=" M211.345673,219.595886   C214.849548,223.730362 219.443771,225.298019 223.932831,227.066971   C225.437775,227.660034 227.489670,228.082306 227.192810,230.222733   C226.881622,232.466309 224.804047,232.194550 223.185883,232.115295   C220.475952,231.982559 219.007950,232.344070 217.965134,235.684311   C216.822235,239.345184 213.249496,242.657440 209.524734,243.523422   C201.786438,245.322540 193.796814,246.088852 185.882004,247.043472   C184.098206,247.258606 181.423325,247.715622 180.899261,245.047516   C180.404953,242.530930 182.473145,241.371521 184.479843,240.269440   C189.300217,237.622116 194.071167,235.083725 199.867386,235.368027   C201.170044,235.431915 202.888779,235.206192 204.071915,233.525085   C201.980270,231.620407 199.623383,233.007523 197.650864,233.207214   C184.786835,234.509491 177.511322,240.116196 175.649368,249.990982   C175.191467,252.419510 175.262695,254.949875 175.121399,257.435181   C175.046616,258.750641 175.314285,260.296539 173.659653,260.783081   C172.209457,261.209564 171.128021,260.231171 170.188034,259.262695   C167.502991,256.496185 165.206924,253.448578 163.675140,249.881317   C157.906708,236.447754 158.066742,220.509857 170.789108,210.919235   C177.166840,206.111465 182.055008,199.184982 190.496872,196.981155   C194.932587,195.823181 197.977402,196.405396 201.261734,199.568802   C204.833084,203.008698 207.827896,206.214218 207.588470,211.733856   C207.470993,214.442169 209.490494,216.982193 211.345673,219.595886  z"/>
<path fill="#000000" opacity="1.000000" stroke="none" d=" M277.761414,140.514130   C275.961609,150.003220 275.918396,149.807434 266.822357,150.331238   C262.093811,150.603561 257.301483,150.460876 252.607193,151.903061   C250.434280,152.570618 247.690308,152.795425 245.450043,151.183456   C244.773102,148.753967 246.446213,147.822449 248.007690,146.888168   C257.127350,141.431671 264.863434,134.587418 270.507294,125.431396   C272.522858,122.161530 274.663452,122.594177 276.043793,126.330650   C277.677643,130.753326 278.201904,135.371902 277.761414,140.514130  z"/>
</svg>